<svg width="580" height="332" viewBox="0 0 580 332" fill="none" xmlns="http://www.w3.org/2000/svg">
<g filter="url(#filter0_d)">
<rect x="16" y="12" width="548" height="300" rx="16" fill="#212528"/>
<rect x="16" y="12" width="548" height="300" rx="16" fill="#212528"/>
<path d="M59.9906 71.7876C54.1945 71.7853 49.5 76.4774 49.5 82.2688C49.5 86.8485 52.4367 90.7415 56.5266 92.1712C57.0773 92.3095 56.993 91.9181 56.993 91.6509V89.8345C53.8125 90.2071 53.6836 88.1024 53.4703 87.7509C53.0391 87.0149 52.0195 86.8274 52.3242 86.4759C53.0484 86.1032 53.7867 86.5696 54.6422 87.8329C55.2609 88.7493 56.468 88.5946 57.0797 88.4423C57.2133 87.8915 57.4992 87.3993 57.893 87.0173C54.5977 86.4267 53.2242 84.4157 53.2242 82.0251C53.2242 80.8649 53.6062 79.7985 54.3562 78.9384C53.8781 77.5204 54.4008 76.3063 54.4711 76.1259C55.8328 76.004 57.2484 77.1009 57.3586 77.1876C58.132 76.979 59.0156 76.8688 60.0047 76.8688C60.9984 76.8688 61.8844 76.9837 62.6648 77.1946C62.9297 76.9931 64.2422 76.0509 65.5078 76.1657C65.5758 76.3462 66.0867 77.5321 65.6367 78.9313C66.3961 79.7938 66.7828 80.8696 66.7828 82.0321C66.7828 84.4274 65.4 86.4407 62.0953 87.022C62.3784 87.3003 62.6031 87.6323 62.7564 87.9985C62.9098 88.3647 62.9886 88.7578 62.9883 89.1548V91.7915C63.007 92.0024 62.9883 92.211 63.3398 92.211C67.4906 90.8118 70.4789 86.8907 70.4789 82.2712C70.4789 76.4774 65.782 71.7876 59.9906 71.7876Z" fill="white"/>
<path d="M97.9766 139.25H99.4219V135.188C99.526 135.302 99.638 135.409 99.7578 135.508C99.8776 135.602 100.005 135.688 100.141 135.766C100.365 135.891 100.615 135.987 100.891 136.055C101.172 136.122 101.474 136.156 101.797 136.156C102.328 136.156 102.799 136.047 103.211 135.828C103.628 135.609 103.977 135.307 104.258 134.922C104.539 134.536 104.753 134.083 104.898 133.562C105.044 133.036 105.117 132.471 105.117 131.867V131.703C105.117 131.073 105.044 130.495 104.898 129.969C104.753 129.438 104.539 128.982 104.258 128.602C103.977 128.221 103.628 127.924 103.211 127.711C102.794 127.497 102.315 127.391 101.773 127.391C101.466 127.391 101.177 127.424 100.906 127.492C100.641 127.555 100.398 127.648 100.18 127.773C100.023 127.857 99.8776 127.958 99.7422 128.078C99.6068 128.193 99.4818 128.323 99.3672 128.469L99.2969 127.547H97.9766V139.25ZM103.672 131.703V131.867C103.672 132.279 103.625 132.672 103.531 133.047C103.443 133.422 103.305 133.753 103.117 134.039C102.93 134.326 102.69 134.555 102.398 134.727C102.107 134.893 101.76 134.977 101.359 134.977C101.109 134.977 100.88 134.945 100.672 134.883C100.469 134.82 100.284 134.734 100.117 134.625C99.9714 134.531 99.8411 134.417 99.7266 134.281C99.612 134.146 99.5104 134 99.4219 133.844V129.773C99.5208 129.596 99.6354 129.435 99.7656 129.289C99.8958 129.143 100.044 129.021 100.211 128.922C100.362 128.823 100.531 128.747 100.719 128.695C100.911 128.643 101.12 128.617 101.344 128.617C101.75 128.617 102.099 128.701 102.391 128.867C102.682 129.034 102.924 129.258 103.117 129.539C103.305 129.826 103.443 130.156 103.531 130.531C103.625 130.901 103.672 131.292 103.672 131.703ZM113.133 127.391C112.518 127.391 111.969 127.526 111.484 127.797C111.005 128.062 110.594 128.427 110.25 128.891L110.242 128.68L110.18 127.547H108.805V136H110.258V130.578C110.352 130.318 110.469 130.083 110.609 129.875C110.755 129.661 110.924 129.482 111.117 129.336C111.331 129.169 111.581 129.044 111.867 128.961C112.154 128.872 112.474 128.828 112.828 128.828C113.104 128.828 113.367 128.844 113.617 128.875C113.872 128.901 114.141 128.945 114.422 129.008L114.617 127.594C114.471 127.531 114.253 127.482 113.961 127.445C113.674 127.409 113.398 127.391 113.133 127.391ZM116.797 131.695V131.867C116.797 132.477 116.885 133.042 117.062 133.562C117.24 134.083 117.495 134.536 117.828 134.922C118.156 135.307 118.557 135.609 119.031 135.828C119.51 136.047 120.049 136.156 120.648 136.156C121.242 136.156 121.776 136.047 122.25 135.828C122.724 135.609 123.128 135.307 123.461 134.922C123.789 134.536 124.042 134.083 124.219 133.562C124.396 133.042 124.484 132.477 124.484 131.867V131.695C124.484 131.086 124.396 130.521 124.219 130C124.042 129.474 123.789 129.018 123.461 128.633C123.128 128.247 122.721 127.945 122.242 127.727C121.768 127.503 121.232 127.391 120.633 127.391C120.039 127.391 119.505 127.503 119.031 127.727C118.557 127.945 118.156 128.247 117.828 128.633C117.495 129.018 117.24 129.474 117.062 130C116.885 130.521 116.797 131.086 116.797 131.695ZM118.242 131.867V131.695C118.242 131.284 118.292 130.891 118.391 130.516C118.49 130.135 118.641 129.802 118.844 129.516C119.042 129.229 119.289 129.003 119.586 128.836C119.883 128.664 120.232 128.578 120.633 128.578C121.034 128.578 121.383 128.664 121.68 128.836C121.982 129.003 122.234 129.229 122.438 129.516C122.635 129.802 122.784 130.135 122.883 130.516C122.987 130.891 123.039 131.284 123.039 131.695V131.867C123.039 132.284 122.99 132.682 122.891 133.062C122.792 133.438 122.643 133.768 122.445 134.055C122.242 134.341 121.99 134.568 121.688 134.734C121.391 134.901 121.044 134.984 120.648 134.984C120.247 134.984 119.896 134.901 119.594 134.734C119.292 134.568 119.042 134.341 118.844 134.055C118.641 133.768 118.49 133.438 118.391 133.062C118.292 132.682 118.242 132.284 118.242 131.867ZM127.789 127.547V128.805H130.609V136.055C130.609 136.456 130.557 136.792 130.453 137.062C130.354 137.339 130.216 137.56 130.039 137.727C129.862 137.893 129.654 138.01 129.414 138.078C129.174 138.151 128.919 138.188 128.648 138.188C128.576 138.188 128.474 138.185 128.344 138.18C128.219 138.18 128.089 138.174 127.953 138.164C127.812 138.159 127.674 138.148 127.539 138.133C127.404 138.122 127.292 138.109 127.203 138.094L127.102 139.281C127.232 139.302 127.357 139.32 127.477 139.336C127.596 139.357 127.716 139.372 127.836 139.383C127.982 139.393 128.13 139.401 128.281 139.406C128.432 139.411 128.589 139.414 128.75 139.414C129.271 139.414 129.734 139.339 130.141 139.188C130.552 139.042 130.901 138.826 131.188 138.539C131.469 138.258 131.682 137.909 131.828 137.492C131.979 137.076 132.055 136.596 132.055 136.055V127.547H127.789ZM130.406 125.32C130.406 125.555 130.477 125.753 130.617 125.914C130.758 126.07 130.974 126.148 131.266 126.148C131.557 126.148 131.776 126.07 131.922 125.914C132.068 125.753 132.141 125.555 132.141 125.32C132.141 125.086 132.068 124.888 131.922 124.727C131.776 124.56 131.557 124.477 131.266 124.477C130.974 124.477 130.758 124.56 130.617 124.727C130.477 124.888 130.406 125.086 130.406 125.32ZM140.156 136.156C140.979 136.156 141.669 135.992 142.227 135.664C142.789 135.331 143.211 134.951 143.492 134.523L142.609 133.836C142.344 134.18 142.01 134.456 141.609 134.664C141.208 134.872 140.75 134.977 140.234 134.977C139.844 134.977 139.487 134.904 139.164 134.758C138.841 134.612 138.565 134.411 138.336 134.156C138.112 133.917 137.935 133.641 137.805 133.328C137.68 133.016 137.599 132.654 137.562 132.242V132.188H143.602V131.539C143.602 130.951 143.526 130.404 143.375 129.898C143.229 129.393 143.005 128.953 142.703 128.578C142.401 128.208 142.021 127.919 141.562 127.711C141.109 127.497 140.578 127.391 139.969 127.391C139.484 127.391 139.01 127.49 138.547 127.688C138.089 127.885 137.68 128.169 137.32 128.539C136.956 128.914 136.664 129.372 136.445 129.914C136.227 130.451 136.117 131.06 136.117 131.742V132.07C136.117 132.659 136.216 133.203 136.414 133.703C136.612 134.203 136.888 134.635 137.242 135C137.596 135.365 138.021 135.648 138.516 135.852C139.016 136.055 139.562 136.156 140.156 136.156ZM139.969 128.578C140.339 128.578 140.656 128.646 140.922 128.781C141.193 128.917 141.417 129.094 141.594 129.312C141.771 129.531 141.909 129.792 142.008 130.094C142.107 130.391 142.156 130.669 142.156 130.93V131H137.609C137.667 130.609 137.766 130.266 137.906 129.969C138.052 129.667 138.229 129.411 138.438 129.203C138.646 129 138.88 128.846 139.141 128.742C139.401 128.633 139.677 128.578 139.969 128.578ZM149.633 134.984C149.18 134.984 148.799 134.896 148.492 134.719C148.19 134.536 147.948 134.299 147.766 134.008C147.578 133.721 147.443 133.398 147.359 133.039C147.281 132.674 147.242 132.307 147.242 131.938V131.609C147.242 131.245 147.281 130.883 147.359 130.523C147.443 130.164 147.578 129.839 147.766 129.547C147.953 129.26 148.198 129.029 148.5 128.852C148.807 128.669 149.185 128.578 149.633 128.578C149.924 128.578 150.195 128.628 150.445 128.727C150.701 128.826 150.919 128.961 151.102 129.133C151.284 129.305 151.427 129.505 151.531 129.734C151.641 129.958 151.698 130.198 151.703 130.453H153.07C153.07 130.026 152.984 129.625 152.812 129.25C152.641 128.875 152.404 128.549 152.102 128.273C151.794 128.003 151.43 127.789 151.008 127.633C150.591 127.471 150.133 127.391 149.633 127.391C148.992 127.391 148.432 127.505 147.953 127.734C147.474 127.964 147.076 128.271 146.758 128.656C146.435 129.047 146.193 129.497 146.031 130.008C145.87 130.518 145.789 131.052 145.789 131.609V131.938C145.789 132.5 145.87 133.036 146.031 133.547C146.193 134.052 146.435 134.497 146.758 134.883C147.076 135.273 147.474 135.583 147.953 135.812C148.432 136.042 148.992 136.156 149.633 136.156C150.081 136.156 150.51 136.081 150.922 135.93C151.333 135.773 151.698 135.565 152.016 135.305C152.333 135.049 152.586 134.753 152.773 134.414C152.966 134.07 153.065 133.711 153.07 133.336H151.703C151.698 133.57 151.635 133.789 151.516 133.992C151.401 134.19 151.247 134.362 151.055 134.508C150.862 134.659 150.641 134.776 150.391 134.859C150.146 134.943 149.893 134.984 149.633 134.984ZM159.062 125.5H157.609V127.547H155.391V128.664H157.609V133.258C157.609 133.779 157.677 134.224 157.812 134.594C157.953 134.958 158.143 135.255 158.383 135.484C158.622 135.719 158.904 135.891 159.227 136C159.555 136.104 159.906 136.156 160.281 136.156C160.505 136.156 160.729 136.146 160.953 136.125C161.182 136.104 161.398 136.073 161.602 136.031C161.805 135.995 161.992 135.951 162.164 135.898C162.336 135.841 162.482 135.776 162.602 135.703L162.398 134.68C162.31 134.701 162.195 134.727 162.055 134.758C161.919 134.784 161.773 134.81 161.617 134.836C161.456 134.862 161.292 134.885 161.125 134.906C160.958 134.922 160.797 134.93 160.641 134.93C160.427 134.93 160.224 134.904 160.031 134.852C159.844 134.799 159.677 134.708 159.531 134.578C159.385 134.453 159.271 134.284 159.188 134.07C159.104 133.857 159.062 133.586 159.062 133.258V128.664H162.281V127.547H159.062V125.5ZM168.156 135.062C168.156 135.365 168.25 135.622 168.438 135.836C168.63 136.044 168.914 136.148 169.289 136.148C169.659 136.148 169.943 136.044 170.141 135.836C170.339 135.628 170.438 135.37 170.438 135.062C170.438 134.75 170.339 134.487 170.141 134.273C169.948 134.055 169.664 133.945 169.289 133.945C168.909 133.945 168.625 134.055 168.438 134.273C168.25 134.492 168.156 134.755 168.156 135.062ZM168.156 128.219C168.156 128.521 168.25 128.779 168.438 128.992C168.63 129.201 168.914 129.305 169.289 129.305C169.659 129.305 169.943 129.201 170.141 128.992C170.339 128.784 170.438 128.526 170.438 128.219C170.438 127.906 170.339 127.643 170.141 127.43C169.948 127.211 169.664 127.102 169.289 127.102C168.909 127.102 168.625 127.211 168.438 127.43C168.25 127.648 168.156 127.911 168.156 128.219Z" fill="#808082"/>
<path d="M59.2734 163.703C59.2734 163.073 59.3516 162.495 59.5078 161.969C59.6693 161.438 59.8958 160.982 60.1875 160.602C60.4844 160.221 60.8411 159.924 61.2578 159.711C61.6745 159.497 62.1406 159.391 62.6562 159.391C63.1615 159.391 63.6016 159.477 63.9766 159.648C64.3568 159.815 64.6849 160.06 64.9609 160.383V156H66.4062V168H65.0781L65.0156 167.109C64.7344 167.453 64.3984 167.714 64.0078 167.891C63.6172 168.068 63.1615 168.156 62.6406 168.156C62.1302 168.156 61.6667 168.047 61.25 167.828C60.8385 167.609 60.487 167.307 60.1953 166.922C59.9036 166.536 59.6771 166.083 59.5156 165.562C59.3542 165.036 59.2734 164.471 59.2734 163.867V163.703ZM60.7188 163.867C60.7188 164.279 60.763 164.669 60.8516 165.039C60.9401 165.409 61.0755 165.734 61.2578 166.016C61.4453 166.297 61.6823 166.521 61.9688 166.688C62.2552 166.849 62.599 166.93 63 166.93C63.2448 166.93 63.4661 166.901 63.6641 166.844C63.862 166.786 64.0417 166.706 64.2031 166.602C64.3646 166.492 64.5078 166.365 64.6328 166.219C64.7578 166.068 64.8672 165.901 64.9609 165.719V161.797C64.7734 161.453 64.5208 161.172 64.2031 160.953C63.8854 160.729 63.4896 160.617 63.0156 160.617C62.6094 160.617 62.2604 160.701 61.9688 160.867C61.6823 161.034 61.4453 161.26 61.2578 161.547C61.0755 161.828 60.9401 162.156 60.8516 162.531C60.763 162.901 60.7188 163.292 60.7188 163.703V163.867ZM72.8906 168.156C72.2969 168.156 71.75 168.055 71.25 167.852C70.7552 167.648 70.3307 167.365 69.9766 167C69.6224 166.635 69.3464 166.203 69.1484 165.703C68.9505 165.203 68.8516 164.659 68.8516 164.07V163.742C68.8516 163.06 68.9609 162.451 69.1797 161.914C69.3984 161.372 69.6875 160.917 70.0469 160.547C70.4115 160.172 70.8229 159.885 71.2812 159.688C71.7448 159.49 72.2188 159.391 72.7031 159.391C73.3125 159.391 73.8438 159.497 74.2969 159.711C74.7552 159.919 75.1354 160.211 75.4375 160.586C75.7396 160.956 75.9635 161.393 76.1094 161.898C76.2604 162.404 76.3359 162.951 76.3359 163.539V164.188H70.2969C70.3125 164.573 70.3854 164.935 70.5156 165.273C70.651 165.612 70.8333 165.909 71.0625 166.164C71.2969 166.414 71.5755 166.612 71.8984 166.758C72.2214 166.904 72.5781 166.977 72.9688 166.977C73.4844 166.977 73.9427 166.872 74.3438 166.664C74.7448 166.456 75.0781 166.18 75.3438 165.836L76.2266 166.523C76.0859 166.737 75.9089 166.943 75.6953 167.141C75.487 167.333 75.2448 167.505 74.9688 167.656C74.6927 167.807 74.3802 167.927 74.0312 168.016C73.6823 168.109 73.3021 168.156 72.8906 168.156ZM72.7031 160.578C72.4115 160.578 72.1354 160.633 71.875 160.742C71.6146 160.846 71.3802 161.003 71.1719 161.211C70.9635 161.414 70.7865 161.667 70.6406 161.969C70.5 162.266 70.401 162.609 70.3438 163H74.8906V162.891C74.875 162.609 74.8203 162.331 74.7266 162.055C74.638 161.779 74.5052 161.531 74.3281 161.312C74.151 161.094 73.9271 160.917 73.6562 160.781C73.3906 160.646 73.0729 160.578 72.7031 160.578ZM84.3828 165.758C84.3828 165.586 84.349 165.432 84.2812 165.297C84.2135 165.156 84.099 165.029 83.9375 164.914C83.776 164.799 83.5625 164.695 83.2969 164.602C83.0312 164.503 82.7005 164.414 82.3047 164.336C81.8203 164.237 81.3776 164.117 80.9766 163.977C80.5807 163.836 80.2396 163.669 79.9531 163.477C79.6719 163.279 79.4531 163.049 79.2969 162.789C79.1406 162.523 79.0625 162.216 79.0625 161.867C79.0625 161.523 79.1432 161.203 79.3047 160.906C79.4661 160.604 79.6927 160.341 79.9844 160.117C80.276 159.893 80.6224 159.716 81.0234 159.586C81.4297 159.456 81.875 159.391 82.3594 159.391C82.8802 159.391 83.349 159.458 83.7656 159.594C84.1823 159.729 84.5365 159.917 84.8281 160.156C85.1198 160.396 85.3438 160.677 85.5 161C85.6615 161.318 85.7422 161.661 85.7422 162.031H84.2969C84.2969 161.849 84.25 161.672 84.1562 161.5C84.0625 161.323 83.9323 161.167 83.7656 161.031C83.599 160.896 83.3958 160.786 83.1562 160.703C82.9219 160.62 82.6562 160.578 82.3594 160.578C82.0521 160.578 81.7812 160.612 81.5469 160.68C81.3177 160.747 81.125 160.839 80.9688 160.953C80.8177 161.068 80.7031 161.201 80.625 161.352C80.5469 161.503 80.5078 161.659 80.5078 161.82C80.5078 161.987 80.5391 162.135 80.6016 162.266C80.6641 162.396 80.7708 162.513 80.9219 162.617C81.0781 162.721 81.2839 162.815 81.5391 162.898C81.7995 162.982 82.1276 163.062 82.5234 163.141C83.0443 163.25 83.5104 163.378 83.9219 163.523C84.3333 163.664 84.6797 163.836 84.9609 164.039C85.2422 164.237 85.4557 164.469 85.6016 164.734C85.7526 165 85.8281 165.307 85.8281 165.656C85.8281 166.031 85.7422 166.372 85.5703 166.68C85.4036 166.987 85.1693 167.25 84.8672 167.469C84.5651 167.688 84.2031 167.857 83.7812 167.977C83.3594 168.096 82.8984 168.156 82.3984 168.156C81.8255 168.156 81.3151 168.081 80.8672 167.93C80.4193 167.773 80.0391 167.57 79.7266 167.32C79.4193 167.065 79.1823 166.771 79.0156 166.438C78.8542 166.104 78.7734 165.758 78.7734 165.398H80.2188C80.2396 165.695 80.3177 165.945 80.4531 166.148C80.5938 166.352 80.7656 166.516 80.9688 166.641C81.1771 166.766 81.4062 166.854 81.6562 166.906C81.9062 166.958 82.1536 166.984 82.3984 166.984C83.0078 166.984 83.4896 166.872 83.8438 166.648C84.1979 166.424 84.3776 166.128 84.3828 165.758ZM91.9766 166.984C92.237 166.984 92.4896 166.943 92.7344 166.859C92.9844 166.776 93.2057 166.661 93.3984 166.516C93.5911 166.365 93.7448 166.19 93.8594 165.992C93.9792 165.789 94.0417 165.57 94.0469 165.336H95.4141C95.4089 165.711 95.3099 166.07 95.1172 166.414C94.9297 166.753 94.6771 167.052 94.3594 167.312C94.0417 167.568 93.6771 167.773 93.2656 167.93C92.8542 168.081 92.4245 168.156 91.9766 168.156C91.3359 168.156 90.776 168.042 90.2969 167.812C89.8177 167.583 89.4167 167.276 89.0938 166.891C88.776 166.5 88.5365 166.052 88.375 165.547C88.2135 165.036 88.1328 164.5 88.1328 163.938V163.609C88.1328 163.052 88.2135 162.518 88.375 162.008C88.5365 161.497 88.776 161.049 89.0938 160.664C89.4167 160.273 89.8177 159.964 90.2969 159.734C90.776 159.505 91.3359 159.391 91.9766 159.391C92.4766 159.391 92.9349 159.471 93.3516 159.633C93.7734 159.789 94.1354 160.005 94.4375 160.281C94.7448 160.552 94.9844 160.875 95.1562 161.25C95.3281 161.625 95.4141 162.026 95.4141 162.453H94.0469C94.0417 162.198 93.9844 161.958 93.875 161.734C93.7708 161.505 93.6276 161.305 93.4453 161.133C93.263 160.961 93.0443 160.826 92.7891 160.727C92.5391 160.628 92.2682 160.578 91.9766 160.578C91.5286 160.578 91.151 160.669 90.8438 160.852C90.5417 161.029 90.2969 161.263 90.1094 161.555C89.9219 161.841 89.7865 162.164 89.7031 162.523C89.625 162.883 89.5859 163.245 89.5859 163.609V163.938C89.5859 164.307 89.625 164.674 89.7031 165.039C89.7865 165.398 89.9193 165.724 90.1016 166.016C90.2891 166.302 90.5339 166.536 90.8359 166.719C91.1432 166.896 91.5234 166.984 91.9766 166.984ZM103.523 159.391C103.659 159.391 103.799 159.396 103.945 159.406C104.091 159.411 104.229 159.424 104.359 159.445C104.495 159.461 104.617 159.482 104.727 159.508C104.841 159.534 104.935 159.562 105.008 159.594L104.812 161.008C104.531 160.945 104.263 160.901 104.008 160.875C103.758 160.844 103.495 160.828 103.219 160.828C102.542 160.828 101.992 160.982 101.57 161.289C101.154 161.596 100.846 162.026 100.648 162.578V168H99.1953V159.547H100.57L100.641 160.891C100.984 160.427 101.396 160.062 101.875 159.797C102.359 159.526 102.909 159.391 103.523 159.391ZM107.82 159.547H112.141V166.75H114.898V168H107.82V166.75H110.695V160.805H107.82V159.547ZM110.508 157.328C110.508 157.089 110.578 156.888 110.719 156.727C110.865 156.56 111.083 156.477 111.375 156.477C111.661 156.477 111.878 156.56 112.023 156.727C112.169 156.888 112.242 157.089 112.242 157.328C112.242 157.562 112.169 157.758 112.023 157.914C111.878 158.07 111.661 158.148 111.375 158.148C111.083 158.148 110.865 158.07 110.719 157.914C110.578 157.758 110.508 157.562 110.508 157.328ZM124.336 163.867C124.336 164.471 124.263 165.036 124.117 165.562C123.971 166.083 123.758 166.536 123.477 166.922C123.195 167.307 122.846 167.609 122.43 167.828C122.018 168.047 121.547 168.156 121.016 168.156C120.5 168.156 120.044 168.073 119.648 167.906C119.258 167.74 118.922 167.5 118.641 167.188V171.25H117.195V159.547H118.516L118.586 160.469C118.867 160.12 119.206 159.854 119.602 159.672C120.003 159.484 120.466 159.391 120.992 159.391C121.534 159.391 122.013 159.497 122.43 159.711C122.846 159.924 123.195 160.221 123.477 160.602C123.758 160.982 123.971 161.438 124.117 161.969C124.263 162.495 124.336 163.073 124.336 163.703V163.867ZM122.891 163.703C122.891 163.292 122.844 162.901 122.75 162.531C122.661 162.156 122.521 161.828 122.328 161.547C122.141 161.26 121.901 161.034 121.609 160.867C121.318 160.701 120.969 160.617 120.562 160.617C120.099 160.617 119.708 160.727 119.391 160.945C119.078 161.159 118.828 161.435 118.641 161.773V165.844C118.828 166.177 119.078 166.451 119.391 166.664C119.703 166.872 120.099 166.977 120.578 166.977C120.979 166.977 121.326 166.893 121.617 166.727C121.909 166.555 122.148 166.326 122.336 166.039C122.523 165.753 122.661 165.422 122.75 165.047C122.844 164.672 122.891 164.279 122.891 163.867V163.703ZM130.234 157.5V159.547H133.453V160.664H130.234V165.258C130.234 165.586 130.276 165.857 130.359 166.07C130.443 166.284 130.557 166.456 130.703 166.586C130.849 166.711 131.016 166.799 131.203 166.852C131.396 166.904 131.599 166.93 131.812 166.93C131.969 166.93 132.13 166.922 132.297 166.906C132.464 166.885 132.625 166.862 132.781 166.836C132.943 166.81 133.091 166.784 133.227 166.758C133.367 166.727 133.482 166.701 133.57 166.68L133.773 167.703C133.654 167.776 133.508 167.841 133.336 167.898C133.164 167.951 132.977 167.995 132.773 168.031C132.57 168.073 132.354 168.104 132.125 168.125C131.901 168.146 131.677 168.156 131.453 168.156C131.078 168.156 130.727 168.104 130.398 168C130.076 167.891 129.794 167.721 129.555 167.492C129.315 167.258 129.125 166.958 128.984 166.594C128.849 166.224 128.781 165.779 128.781 165.258V160.664H126.562V159.547H128.781V157.5H130.234ZM136.648 159.547H140.969V166.75H143.727V168H136.648V166.75H139.523V160.805H136.648V159.547ZM139.336 157.328C139.336 157.089 139.406 156.888 139.547 156.727C139.693 156.56 139.911 156.477 140.203 156.477C140.49 156.477 140.706 156.56 140.852 156.727C140.997 156.888 141.07 157.089 141.07 157.328C141.07 157.562 140.997 157.758 140.852 157.914C140.706 158.07 140.49 158.148 140.203 158.148C139.911 158.148 139.693 158.07 139.547 157.914C139.406 157.758 139.336 157.562 139.336 157.328ZM145.625 163.695C145.625 163.086 145.714 162.521 145.891 162C146.068 161.474 146.32 161.018 146.648 160.633C146.982 160.247 147.385 159.945 147.859 159.727C148.333 159.503 148.867 159.391 149.461 159.391C150.06 159.391 150.596 159.503 151.07 159.727C151.549 159.945 151.953 160.247 152.281 160.633C152.615 161.018 152.87 161.474 153.047 162C153.224 162.521 153.312 163.086 153.312 163.695V163.867C153.312 164.477 153.224 165.042 153.047 165.562C152.87 166.083 152.615 166.536 152.281 166.922C151.953 167.307 151.552 167.609 151.078 167.828C150.604 168.047 150.07 168.156 149.477 168.156C148.878 168.156 148.339 168.047 147.859 167.828C147.385 167.609 146.982 167.307 146.648 166.922C146.32 166.536 146.068 166.083 145.891 165.562C145.714 165.042 145.625 164.477 145.625 163.867V163.695ZM147.07 163.867C147.07 164.284 147.12 164.682 147.219 165.062C147.318 165.438 147.466 165.768 147.664 166.055C147.867 166.341 148.12 166.568 148.422 166.734C148.724 166.901 149.076 166.984 149.477 166.984C149.872 166.984 150.219 166.901 150.516 166.734C150.818 166.568 151.068 166.341 151.266 166.055C151.469 165.768 151.62 165.438 151.719 165.062C151.818 164.682 151.867 164.284 151.867 163.867V163.695C151.867 163.284 151.815 162.891 151.711 162.516C151.612 162.135 151.461 161.802 151.258 161.516C151.06 161.229 150.81 161.003 150.508 160.836C150.211 160.664 149.862 160.578 149.461 160.578C149.06 160.578 148.711 160.664 148.414 160.836C148.117 161.003 147.867 161.229 147.664 161.516C147.466 161.802 147.318 162.135 147.219 162.516C147.12 162.891 147.07 163.284 147.07 163.695V163.867ZM156.938 159.547L157.039 160.797C157.346 160.359 157.724 160.018 158.172 159.773C158.62 159.523 159.12 159.396 159.672 159.391C160.115 159.391 160.516 159.453 160.875 159.578C161.24 159.703 161.549 159.898 161.805 160.164C162.06 160.43 162.255 160.768 162.391 161.18C162.531 161.586 162.602 162.07 162.602 162.633V168H161.156V162.664C161.156 162.289 161.115 161.971 161.031 161.711C160.948 161.451 160.823 161.24 160.656 161.078C160.495 160.917 160.294 160.799 160.055 160.727C159.82 160.654 159.549 160.617 159.242 160.617C158.758 160.617 158.331 160.74 157.961 160.984C157.596 161.224 157.305 161.542 157.086 161.938V168H155.641V159.547H156.938ZM168.156 167.062C168.156 166.906 168.18 166.76 168.227 166.625C168.279 166.49 168.352 166.372 168.445 166.273C168.539 166.169 168.656 166.089 168.797 166.031C168.938 165.974 169.102 165.945 169.289 165.945C169.477 165.945 169.641 165.974 169.781 166.031C169.927 166.089 170.047 166.169 170.141 166.273C170.24 166.372 170.312 166.49 170.359 166.625C170.411 166.76 170.438 166.906 170.438 167.062C170.438 167.214 170.411 167.357 170.359 167.492C170.312 167.622 170.24 167.737 170.141 167.836C170.047 167.935 169.927 168.01 169.781 168.062C169.641 168.12 169.477 168.148 169.289 168.148C169.102 168.148 168.938 168.12 168.797 168.062C168.656 168.01 168.539 167.935 168.445 167.836C168.352 167.737 168.279 167.622 168.227 167.492C168.18 167.357 168.156 167.214 168.156 167.062ZM168.156 160.219C168.156 160.062 168.18 159.917 168.227 159.781C168.279 159.646 168.352 159.529 168.445 159.43C168.539 159.326 168.656 159.245 168.797 159.188C168.938 159.13 169.102 159.102 169.289 159.102C169.477 159.102 169.641 159.13 169.781 159.188C169.927 159.245 170.047 159.326 170.141 159.43C170.24 159.529 170.312 159.646 170.359 159.781C170.411 159.917 170.438 160.062 170.438 160.219C170.438 160.37 170.411 160.513 170.359 160.648C170.312 160.779 170.24 160.893 170.141 160.992C170.047 161.091 169.927 161.169 169.781 161.227C169.641 161.279 169.477 161.305 169.289 161.305C169.102 161.305 168.938 161.279 168.797 161.227C168.656 161.169 168.539 161.091 168.445 160.992C168.352 160.893 168.279 160.779 168.227 160.648C168.18 160.513 168.156 160.37 168.156 160.219Z" fill="#808082"/>
<path d="M126.539 211.703C126.539 211.073 126.617 210.495 126.773 209.969C126.935 209.438 127.161 208.982 127.453 208.602C127.75 208.221 128.107 207.924 128.523 207.711C128.94 207.497 129.406 207.391 129.922 207.391C130.427 207.391 130.867 207.477 131.242 207.648C131.622 207.815 131.951 208.06 132.227 208.383V204H133.672V216H132.344L132.281 215.109C132 215.453 131.664 215.714 131.273 215.891C130.883 216.068 130.427 216.156 129.906 216.156C129.396 216.156 128.932 216.047 128.516 215.828C128.104 215.609 127.753 215.307 127.461 214.922C127.169 214.536 126.943 214.083 126.781 213.562C126.62 213.036 126.539 212.471 126.539 211.867V211.703ZM127.984 211.867C127.984 212.279 128.029 212.669 128.117 213.039C128.206 213.409 128.341 213.734 128.523 214.016C128.711 214.297 128.948 214.521 129.234 214.688C129.521 214.849 129.865 214.93 130.266 214.93C130.51 214.93 130.732 214.901 130.93 214.844C131.128 214.786 131.307 214.706 131.469 214.602C131.63 214.492 131.773 214.365 131.898 214.219C132.023 214.068 132.133 213.901 132.227 213.719V209.797C132.039 209.453 131.786 209.172 131.469 208.953C131.151 208.729 130.755 208.617 130.281 208.617C129.875 208.617 129.526 208.701 129.234 208.867C128.948 209.034 128.711 209.26 128.523 209.547C128.341 209.828 128.206 210.156 128.117 210.531C128.029 210.901 127.984 211.292 127.984 211.703V211.867ZM140.156 216.156C139.562 216.156 139.016 216.055 138.516 215.852C138.021 215.648 137.596 215.365 137.242 215C136.888 214.635 136.612 214.203 136.414 213.703C136.216 213.203 136.117 212.659 136.117 212.07V211.742C136.117 211.06 136.227 210.451 136.445 209.914C136.664 209.372 136.953 208.917 137.312 208.547C137.677 208.172 138.089 207.885 138.547 207.688C139.01 207.49 139.484 207.391 139.969 207.391C140.578 207.391 141.109 207.497 141.562 207.711C142.021 207.919 142.401 208.211 142.703 208.586C143.005 208.956 143.229 209.393 143.375 209.898C143.526 210.404 143.602 210.951 143.602 211.539V212.188H137.562C137.578 212.573 137.651 212.935 137.781 213.273C137.917 213.612 138.099 213.909 138.328 214.164C138.562 214.414 138.841 214.612 139.164 214.758C139.487 214.904 139.844 214.977 140.234 214.977C140.75 214.977 141.208 214.872 141.609 214.664C142.01 214.456 142.344 214.18 142.609 213.836L143.492 214.523C143.352 214.737 143.174 214.943 142.961 215.141C142.753 215.333 142.51 215.505 142.234 215.656C141.958 215.807 141.646 215.927 141.297 216.016C140.948 216.109 140.568 216.156 140.156 216.156ZM139.969 208.578C139.677 208.578 139.401 208.633 139.141 208.742C138.88 208.846 138.646 209.003 138.438 209.211C138.229 209.414 138.052 209.667 137.906 209.969C137.766 210.266 137.667 210.609 137.609 211H142.156V210.891C142.141 210.609 142.086 210.331 141.992 210.055C141.904 209.779 141.771 209.531 141.594 209.312C141.417 209.094 141.193 208.917 140.922 208.781C140.656 208.646 140.339 208.578 139.969 208.578ZM146.695 207.547L146.734 208.344C146.906 208.047 147.13 207.815 147.406 207.648C147.688 207.482 148.026 207.396 148.422 207.391C149.198 207.391 149.716 207.693 149.977 208.297C150.143 208.026 150.362 207.81 150.633 207.648C150.909 207.482 151.242 207.396 151.633 207.391C152.253 207.391 152.729 207.581 153.062 207.961C153.396 208.341 153.562 208.917 153.562 209.688V216H152.188V209.672C152.188 208.964 151.862 208.612 151.211 208.617C151.039 208.617 150.891 208.641 150.766 208.688C150.641 208.734 150.536 208.799 150.453 208.883C150.37 208.961 150.305 209.055 150.258 209.164C150.211 209.268 150.18 209.378 150.164 209.492V216H148.789V209.664C148.789 209.326 148.714 209.065 148.562 208.883C148.411 208.701 148.172 208.612 147.844 208.617C147.542 208.617 147.307 208.677 147.141 208.797C146.974 208.917 146.852 209.076 146.773 209.273V216H145.398V207.547H146.695ZM155.234 211.695C155.234 211.086 155.323 210.521 155.5 210C155.677 209.474 155.93 209.018 156.258 208.633C156.591 208.247 156.995 207.945 157.469 207.727C157.943 207.503 158.477 207.391 159.07 207.391C159.669 207.391 160.206 207.503 160.68 207.727C161.159 207.945 161.562 208.247 161.891 208.633C162.224 209.018 162.479 209.474 162.656 210C162.833 210.521 162.922 211.086 162.922 211.695V211.867C162.922 212.477 162.833 213.042 162.656 213.562C162.479 214.083 162.224 214.536 161.891 214.922C161.562 215.307 161.161 215.609 160.688 215.828C160.214 216.047 159.68 216.156 159.086 216.156C158.487 216.156 157.948 216.047 157.469 215.828C156.995 215.609 156.591 215.307 156.258 214.922C155.93 214.536 155.677 214.083 155.5 213.562C155.323 213.042 155.234 212.477 155.234 211.867V211.695ZM156.68 211.867C156.68 212.284 156.729 212.682 156.828 213.062C156.927 213.438 157.076 213.768 157.273 214.055C157.477 214.341 157.729 214.568 158.031 214.734C158.333 214.901 158.685 214.984 159.086 214.984C159.482 214.984 159.828 214.901 160.125 214.734C160.427 214.568 160.677 214.341 160.875 214.055C161.078 213.768 161.229 213.438 161.328 213.062C161.427 212.682 161.477 212.284 161.477 211.867V211.695C161.477 211.284 161.424 210.891 161.32 210.516C161.221 210.135 161.07 209.802 160.867 209.516C160.669 209.229 160.419 209.003 160.117 208.836C159.82 208.664 159.471 208.578 159.07 208.578C158.669 208.578 158.32 208.664 158.023 208.836C157.727 209.003 157.477 209.229 157.273 209.516C157.076 209.802 156.927 210.135 156.828 210.516C156.729 210.891 156.68 211.284 156.68 211.695V211.867ZM168.156 215.062C168.156 214.906 168.18 214.76 168.227 214.625C168.279 214.49 168.352 214.372 168.445 214.273C168.539 214.169 168.656 214.089 168.797 214.031C168.938 213.974 169.102 213.945 169.289 213.945C169.477 213.945 169.641 213.974 169.781 214.031C169.927 214.089 170.047 214.169 170.141 214.273C170.24 214.372 170.312 214.49 170.359 214.625C170.411 214.76 170.438 214.906 170.438 215.062C170.438 215.214 170.411 215.357 170.359 215.492C170.312 215.622 170.24 215.737 170.141 215.836C170.047 215.935 169.927 216.01 169.781 216.062C169.641 216.12 169.477 216.148 169.289 216.148C169.102 216.148 168.938 216.12 168.797 216.062C168.656 216.01 168.539 215.935 168.445 215.836C168.352 215.737 168.279 215.622 168.227 215.492C168.18 215.357 168.156 215.214 168.156 215.062ZM168.156 208.219C168.156 208.062 168.18 207.917 168.227 207.781C168.279 207.646 168.352 207.529 168.445 207.43C168.539 207.326 168.656 207.245 168.797 207.188C168.938 207.13 169.102 207.102 169.289 207.102C169.477 207.102 169.641 207.13 169.781 207.188C169.927 207.245 170.047 207.326 170.141 207.43C170.24 207.529 170.312 207.646 170.359 207.781C170.411 207.917 170.438 208.062 170.438 208.219C170.438 208.37 170.411 208.513 170.359 208.648C170.312 208.779 170.24 208.893 170.141 208.992C170.047 209.091 169.927 209.169 169.781 209.227C169.641 209.279 169.477 209.305 169.289 209.305C169.102 209.305 168.938 209.279 168.797 209.227C168.656 209.169 168.539 209.091 168.445 208.992C168.352 208.893 168.279 208.779 168.227 208.648C168.18 208.513 168.156 208.37 168.156 208.219Z" fill="#808082"/>
<path d="M107.328 243.703C107.328 243.073 107.404 242.495 107.555 241.969C107.711 241.438 107.935 240.982 108.227 240.602C108.518 240.221 108.872 239.924 109.289 239.711C109.706 239.497 110.177 239.391 110.703 239.391C111.224 239.391 111.68 239.484 112.07 239.672C112.466 239.854 112.802 240.12 113.078 240.469L113.148 239.547H114.461V247.82C114.461 248.378 114.372 248.872 114.195 249.305C114.023 249.737 113.779 250.104 113.461 250.406C113.148 250.708 112.773 250.938 112.336 251.094C111.898 251.25 111.414 251.328 110.883 251.328C110.664 251.328 110.414 251.302 110.133 251.25C109.852 251.203 109.565 251.122 109.273 251.008C108.987 250.898 108.708 250.75 108.438 250.562C108.172 250.375 107.943 250.143 107.75 249.867L108.5 249C108.677 249.214 108.859 249.393 109.047 249.539C109.234 249.69 109.424 249.81 109.617 249.898C109.81 249.987 110.003 250.049 110.195 250.086C110.388 250.128 110.581 250.148 110.773 250.148C111.117 250.148 111.427 250.099 111.703 250C111.979 249.901 112.214 249.755 112.406 249.562C112.604 249.375 112.755 249.141 112.859 248.859C112.964 248.578 113.016 248.255 113.016 247.891V247.164C112.734 247.487 112.401 247.734 112.016 247.906C111.635 248.073 111.193 248.156 110.688 248.156C110.172 248.156 109.706 248.047 109.289 247.828C108.872 247.609 108.518 247.307 108.227 246.922C107.94 246.536 107.719 246.083 107.562 245.562C107.406 245.036 107.328 244.471 107.328 243.867V243.703ZM108.773 243.867C108.773 244.279 108.815 244.669 108.898 245.039C108.987 245.409 109.122 245.734 109.305 246.016C109.492 246.297 109.729 246.521 110.016 246.688C110.302 246.849 110.646 246.93 111.047 246.93C111.297 246.93 111.521 246.901 111.719 246.844C111.922 246.781 112.102 246.695 112.258 246.586C112.419 246.477 112.562 246.346 112.688 246.195C112.812 246.044 112.922 245.878 113.016 245.695V241.82C112.922 241.643 112.812 241.482 112.688 241.336C112.562 241.19 112.419 241.065 112.258 240.961C112.096 240.852 111.917 240.768 111.719 240.711C111.521 240.648 111.302 240.617 111.062 240.617C110.656 240.617 110.307 240.701 110.016 240.867C109.729 241.034 109.492 241.26 109.305 241.547C109.122 241.828 108.987 242.156 108.898 242.531C108.815 242.901 108.773 243.292 108.773 243.703V243.867ZM117.43 239.547H121.75V246.75H124.508V248H117.43V246.75H120.305V240.805H117.43V239.547ZM120.117 237.328C120.117 237.089 120.188 236.888 120.328 236.727C120.474 236.56 120.693 236.477 120.984 236.477C121.271 236.477 121.487 236.56 121.633 236.727C121.779 236.888 121.852 237.089 121.852 237.328C121.852 237.562 121.779 237.758 121.633 237.914C121.487 238.07 121.271 238.148 120.984 238.148C120.693 238.148 120.474 238.07 120.328 237.914C120.188 237.758 120.117 237.562 120.117 237.328ZM130.234 237.5V239.547H133.453V240.664H130.234V245.258C130.234 245.586 130.276 245.857 130.359 246.07C130.443 246.284 130.557 246.456 130.703 246.586C130.849 246.711 131.016 246.799 131.203 246.852C131.396 246.904 131.599 246.93 131.812 246.93C131.969 246.93 132.13 246.922 132.297 246.906C132.464 246.885 132.625 246.862 132.781 246.836C132.943 246.81 133.091 246.784 133.227 246.758C133.367 246.727 133.482 246.701 133.57 246.68L133.773 247.703C133.654 247.776 133.508 247.841 133.336 247.898C133.164 247.951 132.977 247.995 132.773 248.031C132.57 248.073 132.354 248.104 132.125 248.125C131.901 248.146 131.677 248.156 131.453 248.156C131.078 248.156 130.727 248.104 130.398 248C130.076 247.891 129.794 247.721 129.555 247.492C129.315 247.258 129.125 246.958 128.984 246.594C128.849 246.224 128.781 245.779 128.781 245.258V240.664H126.562V239.547H128.781V237.5H130.234ZM137.867 240.805C138.169 240.362 138.542 240.018 138.984 239.773C139.427 239.523 139.924 239.396 140.477 239.391C140.919 239.391 141.32 239.456 141.68 239.586C142.044 239.711 142.354 239.909 142.609 240.18C142.865 240.451 143.06 240.794 143.195 241.211C143.336 241.622 143.406 242.112 143.406 242.68V248H141.961V242.664C141.961 241.971 141.794 241.456 141.461 241.117C141.133 240.779 140.661 240.612 140.047 240.617C139.583 240.617 139.161 240.732 138.781 240.961C138.406 241.185 138.102 241.484 137.867 241.859V248H136.422V236H137.867V240.805ZM151.516 246.836C151.234 247.253 150.883 247.578 150.461 247.812C150.039 248.042 149.552 248.156 149 248.156C148.557 248.156 148.156 248.089 147.797 247.953C147.438 247.812 147.13 247.596 146.875 247.305C146.62 247.013 146.422 246.643 146.281 246.195C146.146 245.742 146.078 245.201 146.078 244.57V239.547H147.523V244.586C147.523 245.044 147.56 245.424 147.633 245.727C147.706 246.029 147.815 246.271 147.961 246.453C148.107 246.63 148.284 246.755 148.492 246.828C148.706 246.901 148.951 246.938 149.227 246.938C149.815 246.938 150.289 246.818 150.648 246.578C151.013 246.339 151.284 246.016 151.461 245.609V239.547H152.914V248H151.602L151.516 246.836ZM162.805 243.867C162.805 244.471 162.732 245.036 162.586 245.562C162.44 246.083 162.227 246.536 161.945 246.922C161.664 247.307 161.315 247.609 160.898 247.828C160.487 248.047 160.013 248.156 159.477 248.156C158.935 248.156 158.464 248.06 158.062 247.867C157.667 247.674 157.328 247.398 157.047 247.039L156.977 248H155.648V236H157.094V240.453C157.37 240.109 157.703 239.846 158.094 239.664C158.484 239.482 158.94 239.391 159.461 239.391C160.003 239.391 160.482 239.497 160.898 239.711C161.315 239.924 161.664 240.221 161.945 240.602C162.227 240.982 162.44 241.438 162.586 241.969C162.732 242.495 162.805 243.073 162.805 243.703V243.867ZM161.359 243.703C161.359 243.292 161.318 242.901 161.234 242.531C161.156 242.156 161.029 241.828 160.852 241.547C160.674 241.26 160.443 241.034 160.156 240.867C159.87 240.701 159.518 240.617 159.102 240.617C158.852 240.617 158.622 240.651 158.414 240.719C158.206 240.781 158.018 240.872 157.852 240.992C157.69 241.107 157.544 241.245 157.414 241.406C157.289 241.562 157.182 241.734 157.094 241.922V245.617C157.188 245.805 157.297 245.979 157.422 246.141C157.552 246.297 157.701 246.435 157.867 246.555C158.034 246.674 158.221 246.768 158.43 246.836C158.638 246.898 158.867 246.93 159.117 246.93C159.513 246.93 159.852 246.849 160.133 246.688C160.419 246.521 160.651 246.297 160.828 246.016C161.01 245.734 161.143 245.409 161.227 245.039C161.315 244.669 161.359 244.279 161.359 243.867V243.703ZM168.156 247.062C168.156 246.906 168.18 246.76 168.227 246.625C168.279 246.49 168.352 246.372 168.445 246.273C168.539 246.169 168.656 246.089 168.797 246.031C168.938 245.974 169.102 245.945 169.289 245.945C169.477 245.945 169.641 245.974 169.781 246.031C169.927 246.089 170.047 246.169 170.141 246.273C170.24 246.372 170.312 246.49 170.359 246.625C170.411 246.76 170.438 246.906 170.438 247.062C170.438 247.214 170.411 247.357 170.359 247.492C170.312 247.622 170.24 247.737 170.141 247.836C170.047 247.935 169.927 248.01 169.781 248.062C169.641 248.12 169.477 248.148 169.289 248.148C169.102 248.148 168.938 248.12 168.797 248.062C168.656 248.01 168.539 247.935 168.445 247.836C168.352 247.737 168.279 247.622 168.227 247.492C168.18 247.357 168.156 247.214 168.156 247.062ZM168.156 240.219C168.156 240.062 168.18 239.917 168.227 239.781C168.279 239.646 168.352 239.529 168.445 239.43C168.539 239.326 168.656 239.245 168.797 239.188C168.938 239.13 169.102 239.102 169.289 239.102C169.477 239.102 169.641 239.13 169.781 239.188C169.927 239.245 170.047 239.326 170.141 239.43C170.24 239.529 170.312 239.646 170.359 239.781C170.411 239.917 170.438 240.062 170.438 240.219C170.438 240.37 170.411 240.513 170.359 240.648C170.312 240.779 170.24 240.893 170.141 240.992C170.047 241.091 169.927 241.169 169.781 241.227C169.641 241.279 169.477 241.305 169.289 241.305C169.102 241.305 168.938 241.279 168.797 241.227C168.656 241.169 168.539 241.091 168.445 240.992C168.352 240.893 168.279 240.779 168.227 240.648C168.18 240.513 168.156 240.37 168.156 240.219Z" fill="#808082"/>
<path d="M16 28C16 19.1634 23.1634 12 32 12H548C556.837 12 564 19.1634 564 28V52H16V28Z" fill="#1E1E1E"/>
<circle cx="36" cy="32" r="4" fill="#464A4D"/>
<circle cx="52" cy="32" r="4" fill="#464A4D"/>
<circle cx="68" cy="32" r="4" fill="#464A4D"/>
</g>
<defs>
<filter id="filter0_d" x="0" y="0" width="580" height="332" filterUnits="userSpaceOnUse" color-interpolation-filters="sRGB">
<feFlood flood-opacity="0" result="BackgroundImageFix"/>
<feColorMatrix in="SourceAlpha" type="matrix" values="0 0 0 0 0 0 0 0 0 0 0 0 0 0 0 0 0 0 127 0"/>
<feOffset dy="4"/>
<feGaussianBlur stdDeviation="8"/>
<feColorMatrix type="matrix" values="0 0 0 0 0 0 0 0 0 0 0 0 0 0 0 0 0 0 0.25 0"/>
<feBlend mode="normal" in2="BackgroundImageFix" result="effect1_dropShadow"/>
<feBlend mode="normal" in="SourceGraphic" in2="effect1_dropShadow" result="shape"/>
</filter>
</defs>
</svg>
